<?xml version="1.0" encoding="UTF-8" standalone="no"?>
<!-- Created with Inkscape (http://www.inkscape.org/) -->

<svg
   version="1.1"
   id="svg2"
   width="180"
   height="130"
   viewBox="0 0 180 130"
   sodipodi:docname="osh-logo.svg"
   inkscape:version="1.1.1 (3bf5ae0d25, 2021-09-20)"
   xmlns:inkscape="http://www.inkscape.org/namespaces/inkscape"
   xmlns:sodipodi="http://sodipodi.sourceforge.net/DTD/sodipodi-0.dtd"
   xmlns="http://www.w3.org/2000/svg"
   xmlns:svg="http://www.w3.org/2000/svg">
  <defs
     id="defs6" />
  <sodipodi:namedview
     id="namedview4"
     pagecolor="#505050"
     bordercolor="#ffffff"
     borderopacity="1"
     inkscape:pageshadow="0"
     inkscape:pageopacity="0"
     inkscape:pagecheckerboard="1"
     showgrid="false"
     inkscape:zoom="2.6137837"
     inkscape:cx="149.20898"
     inkscape:cy="138.68783"
     inkscape:window-width="1920"
     inkscape:window-height="1001"
     inkscape:window-x="-9"
     inkscape:window-y="-9"
     inkscape:window-maximized="1"
     inkscape:current-layer="g8" />
  <g
     inkscape:groupmode="layer"
     inkscape:label="Image"
     id="g8">
    <path
       fill="#0099b0"
       d="m 161.43029,62.139113 -17.73323,-3.297675 c -0.43149,-0.0809 -0.90397,-0.486507 -1.0496,-0.902896 l -5.43571,-12.68154 c -0.20281,-0.391579 -0.16397,-1.006454 0.0863,-1.371065 l 10.33207,-15.059059 c 0.24703,-0.362453 0.19849,-0.913683 -0.11327,-1.225436 L 134.61201,14.696606 c -0.31175,-0.311753 -0.86191,-0.362453 -1.22436,-0.113267 L 118.0643,25.09879 c -0.36245,0.249187 -0.9838,0.293415 -1.37753,0.09924 l -12.2932,-5.032272 c -0.41747,-0.138078 -0.82415,-0.605167 -0.90613,-1.037738 L 100.07326,0.7863936 C 99.993456,0.3538232 99.567326,0 99.127206,0 H 80.875107 C 80.436064,0 80.009966,0.3538232 79.93014,0.7863936 L 76.517041,19.128024 c -0.08198,0.432571 -0.487586,0.89966 -0.906133,1.037738 l -12.294276,5.032271 c -0.394815,0.194173 -1.016163,0.149945 -1.377537,-0.09924 L 46.616826,14.583339 C 46.253294,14.334153 45.702064,14.384852 45.39139,14.696606 L 32.485474,27.601442 c -0.310674,0.311753 -0.362453,0.862983 -0.113266,1.225436 l 10.333146,15.059059 c 0.248108,0.364611 0.286942,0.979486 0.08522,1.371065 l -5.436795,12.68154 c -0.14455,0.416389 -0.615954,0.821992 -1.049604,0.902896 l -17.732149,3.297675 c -0.43365,0.08198 -0.786394,0.507003 -0.786394,0.947124 l 0.0011,18.251019 c 0,0.440122 0.353823,0.868377 0.786393,0.947124 l 17.297422,3.218929 c 0.432571,0.07875 0.895346,0.489743 1.02695,0.909368 l 5.400119,13.489508 c 0.193092,0.395885 0.147786,1.015075 -0.10248,1.377535 l -9.825065,14.31796 c -0.248108,0.36246 -0.197407,0.91477 0.113267,1.22652 l 12.906994,12.90484 c 0.310674,0.30959 0.861905,0.36029 1.225436,0.11326 l 14.064471,-9.65354 c 0.362453,-0.24811 0.969778,-0.26753 1.348412,-0.0464 l 6.202692,3.3117 c 0.392658,0.20064 0.851118,0.0313 1.019399,-0.3754 L 82.040134,92.176327 c 0.169361,-0.406681 0,-0.92555 -0.375398,-1.155319 l -1.552291,-0.950361 c -0.286942,-0.174754 -0.676363,-0.475719 -0.981643,-0.751874 -5.599683,-3.585696 -9.314827,-9.858506 -9.314827,-17.00185 0,-11.147587 9.037593,-20.184101 20.184106,-20.184101 11.146509,0 20.183029,9.036514 20.183029,20.184101 0,7.143344 -3.71407,13.416154 -9.31483,17.00185 -0.30312,0.276155 -0.69362,0.57712 -0.979484,0.751874 l -1.5523,0.950361 c -0.37324,0.229769 -0.54368,0.748638 -0.37539,1.155319 l 12.788334,30.903423 c 0.16828,0.40668 0.62566,0.57496 1.0194,0.3754 l 6.20269,-3.3117 c 0.37971,-0.22114 0.98596,-0.2028 1.34841,0.0464 l 14.06555,9.65355 c 0.36246,0.24703 0.91477,0.19633 1.22436,-0.11326 l 12.90699,-12.90484 c 0.31176,-0.31175 0.36246,-0.86406 0.11327,-1.22652 l -9.82614,-14.31796 c -0.24811,-0.36246 -0.2945,-0.98165 -0.1014,-1.377535 l 5.40012,-13.489509 c 0.13268,-0.419625 0.59222,-0.830621 1.02587,-0.909368 l 17.29742,-3.218928 c 0.43149,-0.07875 0.78639,-0.507003 0.78639,-0.947124 l 0.002,-18.251019 c 0.001,-0.4412 -0.35274,-0.866219 -0.78424,-0.948204"
       id="path210"
       />
  </g>
</svg>
