<?xml version="1.0" encoding="UTF-8" standalone="no"?>
<svg
   width="180pt"
   height="130pt"
   version="1.1"
   viewBox="0 0 180 130"
   id="svg144"
   sodipodi:docname="plant.svg"
   inkscape:version="1.1.1 (3bf5ae0d25, 2021-09-20)"
   xmlns:inkscape="http://www.inkscape.org/namespaces/inkscape"
   xmlns:sodipodi="http://sodipodi.sourceforge.net/DTD/sodipodi-0.dtd"
   xmlns="http://www.w3.org/2000/svg"
   xmlns:svg="http://www.w3.org/2000/svg">
  <sodipodi:namedview
     id="namedview146"
     pagecolor="#505050"
     bordercolor="#ffffff"
     borderopacity="1"
     inkscape:pageshadow="0"
     inkscape:pageopacity="0"
     inkscape:pagecheckerboard="1"
     inkscape:document-units="pt"
     showgrid="false"
     inkscape:zoom="0.77035714"
     inkscape:cx="467.31572"
     inkscape:cy="466.66667"
     inkscape:window-width="1920"
     inkscape:window-height="1001"
     inkscape:window-x="-9"
     inkscape:window-y="-9"
     inkscape:window-maximized="1"
     inkscape:current-layer="svg144" />
  <defs
     id="defs62">
    <symbol
       id="t"
       overflow="visible">
      <path
         d="m 18.766,-1.125 c -0.96875,0.5 -1.9805,0.875 -3.0312,1.125 -1.043,0.25781 -2.1367,0.39062 -3.2812,0.39062 -3.3984,0 -6.0898,-0.94531 -8.0781,-2.8438 -1.9922,-1.9062 -2.9844,-4.4844 -2.9844,-7.7344 0,-3.2578 0.99219,-5.8359 2.9844,-7.7344 1.9883,-1.9062 4.6797,-2.8594 8.0781,-2.8594 1.1445,0 2.2383,0.13281 3.2812,0.39062 1.0508,0.25 2.0625,0.625 3.0312,1.125 v 4.2188 c -0.98047,-0.65625 -1.9453,-1.1406 -2.8906,-1.4531 -0.94922,-0.3125 -1.9492,-0.46875 -3,-0.46875 -1.875,0 -3.3516,0.60547 -4.4219,1.8125 -1.0742,1.1992 -1.6094,2.8555 -1.6094,4.9688 0,2.1055 0.53516,3.7617 1.6094,4.9688 1.0703,1.1992 2.5469,1.7969 4.4219,1.7969 1.0508,0 2.0508,-0.14844 3,-0.45312 0.94531,-0.3125 1.9102,-0.80078 2.8906,-1.4688 z"
         id="path2" />
    </symbol>
    <symbol
       id="d"
       overflow="visible">
      <path
         d="m 13.734,-11.141 c -0.4375,-0.19531 -0.87109,-0.34375 -1.2969,-0.4375 -0.41797,-0.10156 -0.83984,-0.15625 -1.2656,-0.15625 -1.2617,0 -2.2305,0.40625 -2.9062,1.2188 -0.67969,0.80469 -1.0156,1.9531 -1.0156,3.4531 v 7.0625 H 2.3591 v -15.312 h 4.8906 v 2.5156 c 0.625,-1 1.3438,-1.7266 2.1562,-2.1875 0.82031,-0.46875 1.8008,-0.70312 2.9375,-0.70312 0.16406,0 0.34375,0.01172 0.53125,0.03125 0.19531,0.01172 0.47656,0.03906 0.84375,0.07813 z"
         id="path5" />
    </symbol>
    <symbol
       id="c"
       overflow="visible">
      <path
         d="m 17.641,-7.7031 v 1.4062 H 6.188 c 0.125,1.1484 0.53906,2.0078 1.25,2.5781 0.70703,0.57422 1.7031,0.85938 2.9844,0.85938 1.0312,0 2.082,-0.14844 3.1562,-0.45312 1.082,-0.3125 2.1914,-0.77344 3.3281,-1.3906 v 3.7656 c -1.1562,0.4375 -2.3125,0.76562 -3.4688,0.98438 -1.1562,0.22656 -2.3125,0.34375 -3.4688,0.34375 -2.7734,0 -4.9297,-0.70312 -6.4688,-2.1094 -1.5312,-1.4062 -2.2969,-3.3789 -2.2969,-5.9219 0,-2.5 0.75391,-4.4609 2.2656,-5.8906 1.5078,-1.4375 3.582,-2.1562 6.2188,-2.1562 2.4062,0 4.332,0.73047 5.7812,2.1875 1.4453,1.4492 2.1719,3.3828 2.1719,5.7969 z m -5.0312,-1.625 c 0,-0.92578 -0.27344,-1.6719 -0.8125,-2.2344 -0.54297,-0.57031 -1.25,-0.85938 -2.125,-0.85938 -0.94922,0 -1.7188,0.26562 -2.3125,0.79688 -0.5937,0.53126 -0.96484,1.2969 -1.1094,2.2969 z"
         id="path8" />
    </symbol>
    <symbol
       id="g"
       overflow="visible">
      <path
         d="m 9.2188,-6.8906 c -1.0234,0 -1.793,0.17188 -2.3125,0.51562 -0.51172,0.34375 -0.76562,0.85547 -0.76562,1.5312 0,0.625 0.20703,1.1172 0.625,1.4688 0.41406,0.34375 0.98828,0.51562 1.7188,0.51562 0.92578,0 1.7031,-0.32812 2.3281,-0.98438 0.63281,-0.66406 0.95312,-1.4922 0.95312,-2.4844 v -0.5625 z m 7.4688,-1.8438 V 0 h -4.9219 v -2.2656 c -0.65625,0.92969 -1.3984,1.6055 -2.2188,2.0312 -0.82422,0.41406 -1.8242,0.625 -3,0.625 -1.5859,0 -2.8711,-0.45703 -3.8594,-1.375 -0.99219,-0.92578 -1.4844,-2.1289 -1.4844,-3.6094 0,-1.7891 0.61328,-3.1016 1.8438,-3.9375 1.2383,-0.84375 3.1797,-1.2656 5.8281,-1.2656 h 2.8906 v -0.39062 c 0,-0.76953 -0.30859,-1.332 -0.92188,-1.6875 -0.61719,-0.36328 -1.5703,-0.54688 -2.8594,-0.54688 -1.0547,0 -2.0312,0.10547 -2.9375,0.3125 -0.89844,0.21094 -1.7305,0.52344 -2.5,0.9375 v -3.7344 c 1.0391,-0.25 2.0859,-0.44141 3.1406,-0.57812 1.0625,-0.13281 2.125,-0.20312 3.1875,-0.20312 2.7578,0 4.75,0.54688 5.9688,1.6406 1.2266,1.0859 1.8438,2.8555 1.8438,5.3125 z"
         id="path11" />
    </symbol>
    <symbol
       id="e"
       overflow="visible">
      <path
         d="m 7.7031,-19.656 v 4.3438 H 12.75 v 3.5 H 7.7031 v 6.5 c 0,0.71094 0.14062,1.1875 0.42188,1.4375 0.28126,0.25 0.83594,0.375 1.6719,0.375 h 2.5156 v 3.5 h -4.1875 c -1.9375,0 -3.3125,-0.39844 -4.125,-1.2031 -0.80469,-0.8125 -1.2031,-2.1797 -1.2031,-4.1094 v -6.5 h -2.4219 v -3.5 h 2.4219 v -4.3438 z"
         id="path14" />
    </symbol>
    <symbol
       id="b"
       overflow="visible">
      <path
         d="m 12.766,-13.078 v -8.2031 h 4.9219 V -1e-4 H 12.766 v -2.2188 c -0.66797,0.90625 -1.4062,1.5703 -2.2188,1.9844 -0.8126,0.4141 -1.7578,0.625 -2.8281,0.625 -1.8867,0 -3.4336,-0.75 -4.6406,-2.25 -1.2109,-1.5 -1.8125,-3.4258 -1.8125,-5.7812 0,-2.3633 0.60156,-4.2969 1.8125,-5.7969 1.207,-1.5 2.7539,-2.25 4.6406,-2.25 1.0625,0 2,0.21484 2.8125,0.64062 0.82031,0.42969 1.5664,1.0859 2.2344,1.9688 z m -3.2188,9.9219 c 1.0391,0 1.8359,-0.37891 2.3906,-1.1406 0.55078,-0.76953 0.82812,-1.8828 0.82812,-3.3438 0,-1.457 -0.27734,-2.5664 -0.82812,-3.3281 -0.55469,-0.76953 -1.3516,-1.1562 -2.3906,-1.1562 -1.043,0 -1.8398,0.38672 -2.3906,1.1562 -0.55469,0.76172 -0.82812,1.8711 -0.82812,3.3281 0,1.4609 0.27344,2.5742 0.82812,3.3438 0.55078,0.76172 1.3477,1.1406 2.3906,1.1406 z"
         id="path17" />
    </symbol>
    <symbol
       id="j"
       overflow="visible">
      <path
         d="m 10.5,-3.1562 c 1.0508,0 1.8516,-0.37891 2.4062,-1.1406 0.55078,-0.76953 0.82812,-1.8828 0.82812,-3.3438 0,-1.457 -0.27734,-2.5664 -0.82812,-3.3281 -0.55469,-0.76953 -1.3555,-1.1562 -2.4062,-1.1562 -1.0547,0 -1.8594,0.38672 -2.4219,1.1562 -0.55469,0.77344 -0.82812,1.8828 -0.82812,3.3281 0,1.4492 0.27344,2.5586 0.82812,3.3281 0.5625,0.77344 1.3672,1.1562 2.4219,1.1562 z m -3.25,-9.9219 c 0.67578,-0.88281 1.4219,-1.5391 2.2344,-1.9688 0.82031,-0.42578 1.7656,-0.64062 2.8281,-0.64062 1.8945,0 3.4453,0.75 4.6562,2.25 1.207,1.5 1.8125,3.4336 1.8125,5.7969 0,2.3555 -0.60547,4.2812 -1.8125,5.7812 -1.2109,1.5 -2.7617,2.25 -4.6562,2.25 -1.0625,0 -2.0078,-0.21094 -2.8281,-0.625 C 8.6719,-0.6602 7.9258,-1.32032 7.25,-2.21882 V -2e-5 H 2.3594 v -21.281 H 7.25 Z"
         id="path20" />
    </symbol>
    <symbol
       id="i"
       overflow="visible">
      <path
         d="m 0.34375,-15.312 h 4.8906 l 4.125,10.391 3.5,-10.391 h 4.8906 l -6.4375,16.766 c -0.64844,1.6953 -1.4023,2.8828 -2.2656,3.5625 -0.86719,0.6875 -2,1.0312 -3.4062,1.0312 H 2.79685 V 2.8289 h 1.5312 c 0.83203,0 1.4375,-0.13672 1.8125,-0.40625 C 6.52336,2.16093 6.82024,1.69218 7.03117,1.01645 L 7.17179,0.59457 Z"
         id="path23" />
    </symbol>
    <symbol
       id="f"
       overflow="visible">
      <path
         d="M 17.75,-9.3281 V 0 h -4.9219 v -7.1406 c 0,-1.3203 -0.03125,-2.2344 -0.09375,-2.7344 -0.0625,-0.5 -0.16797,-0.86719 -0.3125,-1.1094 -0.1875,-0.3125 -0.44922,-0.55469 -0.78125,-0.73438 -0.32422,-0.17578 -0.69531,-0.26562 -1.1094,-0.26562 -1.0234,0 -1.8242,0.39844 -2.4062,1.1875 -0.58594,0.78125 -0.875,1.8711 -0.875,3.2656 V -1e-4 H 2.3594 v -15.312 H 7.25 v 2.2344 c 0.73828,-0.88281 1.5195,-1.5391 2.3438,-1.9688 0.83203,-0.42578 1.75,-0.64062 2.75,-0.64062 1.7695,0 3.1133,0.54688 4.0312,1.6406 0.91406,1.0859 1.375,2.6562 1.375,4.7188 z"
         id="path26" />
    </symbol>
    <symbol
       id="h"
       overflow="visible">
      <path
         d="M 2.3594,-15.312 H 7.25 V 0 H 2.3594 Z m 0,-5.9688 H 7.25 v 4 H 2.3594 Z"
         id="path29" />
    </symbol>
    <symbol
       id="s"
       overflow="visible">
      <path
         d="m 0.98438,-15.312 h 4.7656 l 2.5625,10.547 2.5781,-10.547 h 4.0938 l 2.5781,10.438 2.5781,-10.438 h 4.75 L 20.85938,0 h -5.3438 L 12.93748,-10.531 10.35938,0 h -5.3438 z"
         id="path32" />
    </symbol>
    <symbol
       id="a"
       overflow="visible">
      <path
         d="m 9.6406,-12.188 c -1.0859,0 -1.9141,0.39062 -2.4844,1.1719 -0.57422,0.78125 -0.85938,1.9062 -0.85938,3.375 0,1.4688 0.28516,2.5938 0.85938,3.375 0.57031,0.77344 1.3984,1.1562 2.4844,1.1562 1.0625,0 1.875,-0.38281 2.4375,-1.1562 0.57031,-0.78125 0.85938,-1.9062 0.85938,-3.375 0,-1.4688 -0.28906,-2.5938 -0.85938,-3.375 -0.5625,-0.78125 -1.375,-1.1719 -2.4375,-1.1719 z m 0,-3.5 c 2.6328,0 4.6914,0.71484 6.1719,2.1406 1.4766,1.418 2.2188,3.3867 2.2188,5.9062 0,2.5117 -0.74219,4.4805 -2.2188,5.9062 C 14.332,-0.317 12.2734,0.39 9.6406,0.39 6.9922,0.39 4.9258,-0.31703 3.4375,-1.735 1.9453,-3.1608 1.2031,-5.1295 1.2031,-7.6412 c 0,-2.5195 0.74219,-4.4883 2.2344,-5.9062 1.4883,-1.4258 3.5547,-2.1406 6.2031,-2.1406 z"
         id="path35" />
    </symbol>
    <symbol
       id="r"
       overflow="visible">
      <path
         d="m 12.422,-21.281 v 3.2188 H 9.7189 c -0.6875,0 -1.1719,0.125 -1.4531,0.375 -0.27344,0.25 -0.40625,0.6875 -0.40625,1.3125 v 1.0625 h 4.1875 v 3.5 H 7.85955 V -2e-4 h -4.8906 v -11.812 h -2.4375 v -3.5 h 2.4375 v -1.0625 c 0,-1.6641 0.46094,-2.8984 1.3906,-3.7031 0.92578,-0.80078 2.3672,-1.2031 4.3281,-1.2031 z"
         id="path38" />
    </symbol>
    <symbol
       id="q"
       overflow="visible">
      <path
         d="m 16.547,-12.766 c 0.61328,-0.94531 1.3477,-1.6719 2.2031,-2.1719 0.85156,-0.5 1.7891,-0.75 2.8125,-0.75 1.7578,0 3.0977,0.54688 4.0156,1.6406 0.92578,1.0859 1.3906,2.6562 1.3906,4.7188 V -4e-4 h -4.9219 v -7.9844 -0.35938 c 0.0078,-0.13281 0.01563,-0.32031 0.01563,-0.5625 0,-1.082 -0.16406,-1.8633 -0.48438,-2.3438 -0.3125,-0.48828 -0.82422,-0.73438 -1.5312,-0.73438 -0.92969,0 -1.6484,0.38672 -2.1562,1.1562 -0.51172,0.76172 -0.77344,1.8672 -0.78125,3.3125 v 7.5156 h -4.9219 v -7.9844 c 0,-1.6953 -0.14844,-2.7852 -0.4375,-3.2656 -0.29297,-0.48828 -0.8125,-0.73438 -1.5625,-0.73438 -0.9375,0 -1.6641,0.38672 -2.1719,1.1562 -0.51172,0.76172 -0.76562,1.8594 -0.76562,3.2969 v 7.5312 h -4.9219 v -15.312 h 4.9219 v 2.2344 c 0.60156,-0.86328 1.2891,-1.5156 2.0625,-1.9531 0.78125,-0.4375 1.6406,-0.65625 2.5781,-0.65625 1.0625,0 2,0.25781 2.8125,0.76562 0.8125,0.51172 1.4258,1.2305 1.8438,2.1562 z"
         id="path41" />
    </symbol>
    <symbol
       id="p"
       overflow="visible">
      <path
         d="M 17.75,-9.3281 V 0 h -4.9219 v -7.1094 c 0,-1.3438 -0.03125,-2.2656 -0.09375,-2.7656 -0.0625,-0.5 -0.16797,-0.86719 -0.3125,-1.1094 -0.1875,-0.3125 -0.44922,-0.55469 -0.78125,-0.73438 -0.32422,-0.17578 -0.69531,-0.26562 -1.1094,-0.26562 -1.0234,0 -1.8242,0.39844 -2.4062,1.1875 -0.58594,0.78125 -0.875,1.8711 -0.875,3.2656 V -1e-4 H 2.3594 v -21.281 H 7.25 v 8.2031 c 0.73828,-0.88281 1.5195,-1.5391 2.3438,-1.9688 0.83203,-0.42578 1.75,-0.64062 2.75,-0.64062 1.7695,0 3.1133,0.54688 4.0312,1.6406 0.91406,1.0859 1.375,2.6562 1.375,4.7188 z"
         id="path44" />
    </symbol>
    <symbol
       id="o"
       overflow="visible">
      <path
         d="m 2.5781,-20.406 h 5.875 l 7.4219,14 v -14 h 4.9844 V 0 h -5.875 L 7.5625,-14 V 0 H 2.5781 Z"
         id="path47" />
    </symbol>
    <symbol
       id="n"
       overflow="visible">
      <path
         d="m 2.1875,-5.9688 v -9.3438 h 4.9219 v 1.5312 c 0,0.83594 -0.00781,1.875 -0.015625,3.125 -0.011719,1.25 -0.015625,2.0859 -0.015625,2.5 0,1.2422 0.03125,2.1328 0.09375,2.6719 0.070313,0.54297 0.17969,0.93359 0.32812,1.1719 0.20703,0.32422 0.47266,0.57422 0.79688,0.75 0.32031,0.16797 0.69141,0.25 1.1094,0.25 1.0195,0 1.8203,-0.39062 2.4062,-1.1719 0.58203,-0.78125 0.875,-1.8672 0.875,-3.2656 v -7.5625 h 4.8906 V -6e-4 H 12.6875 V -2.2194 C 11.94531,-1.32096 11.1641,-0.6608 10.3437,-0.235 9.51948,0.17906 8.6093,0.39 7.6093,0.39 5.8476,0.39 4.5038,-0.14906 3.5781,-1.235 2.64841,-2.317 2.1875,-3.8952 2.1875,-5.9694 Z"
         id="path50" />
    </symbol>
    <symbol
       id="m"
       overflow="visible">
      <path
         d="m 2.5781,-20.406 h 8.7344 c 2.5938,0 4.582,0.57812 5.9688,1.7344 1.3945,1.1484 2.0938,2.7891 2.0938,4.9219 0,2.1367 -0.69922,3.7812 -2.0938,4.9375 -1.3867,1.1562 -3.375,1.7344 -5.9688,1.7344 H 7.8281 V 3e-4 h -5.25 z m 5.25,3.8125 v 5.7031 H 10.75 c 1.0195,0 1.8047,-0.25 2.3594,-0.75 0.5625,-0.5 0.84375,-1.2031 0.84375,-2.1094 0,-0.91406 -0.28125,-1.6172 -0.84375,-2.1094 -0.55469,-0.48828 -1.3398,-0.73438 -2.3594,-0.73438 z"
         id="path53" />
    </symbol>
    <symbol
       id="l"
       overflow="visible">
      <path
         d="M 2.3594,-15.312 H 7.25 v 15.031 c 0,2.0508 -0.49609,3.6172 -1.4844,4.7031 -0.98047,1.082 -2.4062,1.625 -4.2812,1.625 H -0.9375 V 2.8283 h 0.85938 c 0.92578,0 1.5625,-0.21094 1.9062,-0.625 0.35156,-0.41797 0.53125,-1.2461 0.53125,-2.4844 z m 0,-5.9688 H 7.25 v 4 H 2.3594 Z"
         id="path56" />
    </symbol>
    <symbol
       id="k"
       overflow="visible">
      <path
         d="m 14.719,-14.828 v 3.9844 c -0.65625,-0.45703 -1.3242,-0.79688 -2,-1.0156 -0.66797,-0.21875 -1.3594,-0.32812 -2.0781,-0.32812 -1.3672,0 -2.4336,0.40234 -3.2031,1.2031 -0.76172,0.79297 -1.1406,1.9062 -1.1406,3.3438 0,1.4297 0.37891,2.543 1.1406,3.3438 0.76953,0.79297 1.8359,1.1875 3.2031,1.1875 0.75781,0 1.4844,-0.10938 2.1719,-0.32812 0.6875,-0.22656 1.3203,-0.56641 1.9062,-1.0156 v 4 c -0.76172,0.28125 -1.5391,0.48828 -2.3281,0.625 -0.78125,0.14453 -1.5742,0.21875 -2.375,0.21875 -2.7617,0 -4.9219,-0.70703 -6.4844,-2.125 -1.5547,-1.4141 -2.3281,-3.3828 -2.3281,-5.9062 0,-2.5312 0.77344,-4.5039 2.3281,-5.9219 1.5625,-1.4141 3.7227,-2.125 6.4844,-2.125 0.80078,0 1.5938,0.07422 2.375,0.21875 0.78125,0.13672 1.5547,0.35156 2.3281,0.64062 z"
         id="path59" />
    </symbol>
  </defs>
  <path
     d="m 46.802434,0 c -3.89911,0.01339 -7.73654,0.224514 -11.40496,0.435629 -0.55409,-0.05562 -1.1236,0.05046 -1.62102,0.300719 -0.49743,0.250261 -0.92175,0.644702 -1.20702,1.122568 -0.0226,0.03605 -0.0443,0.07209 -0.0649,0.109167 -0.008,0.01442 -0.0154,0.02987 -0.0237,0.04428 -0.25953,0.483006 -0.38105,1.039149 -0.34604,1.586012 0.035,0.546862 0.22555,1.083442 0.54481,1.52938 6.04549,12.009512 13.23601,26.028301 27.24557,32.28392 0.0124,0.0062 0.0257,0.01134 0.0391,0.01648 8.20926,3.527371 17.18865,2.122592 24.73984,-1.228661 2.5129,1.547914 5.02569,3.095776 7.53986,4.643664 V 76.68372 h -26.50208 v 0.001 c -2.55205,-0.0618 -4.87436,1.03093 -6.2957,2.68791 -1.44287,1.68077 -2.06284,3.77151 -2.06182,5.81664 10e-4,2.04535 0.62309,4.13509 2.06697,5.81375 1.42226,1.65295 3.74251,2.74064 6.29042,2.67472 v 0.001 h 2.13598 c 1.35532,8.16787 2.71059,16.33495 4.06706,24.50203 0.0175,0.10608 0.0412,0.2101 0.07,0.31411 0.28115,1.00414 0.32028,3.16986 0.88467,5.49552 0.28219,1.16275 0.73638,2.44287 1.70858,3.59539 0.97221,1.15141 2.50057,2.02475 4.18017,2.30077 0.1586,0.0268 0.31823,0.0402 0.4789,0.0402 h 26.310396 0.19774 c 1.10917,-0.0752 3.29035,0.25953 5.69932,-0.0875 1.20393,-0.17302 2.58089,-0.56745 3.77968,-1.57778 1.18437,-0.99797 1.98354,-2.55514 2.24103,-4.23185 1.69621,-10.11439 3.39343,-20.228 5.08975,-30.34345 h 0.74049 c 2.59737,0.46036 5.14223,-0.33368 6.78688,-1.85895 1.71989,-1.59426 2.5675,-3.73328 2.76621,-5.87543 0.19871,-2.14216 -0.24099,-4.40058 -1.64987,-6.27513 -1.39239,-1.85172 -3.88277,-3.0876 -6.61893,-2.98452 H 98.149934 V 66.65079 c 2.999006,-2.09684 5.998026,-4.194675 8.997046,-6.291482 5.08343,2.151435 10.95702,3.241047 16.73253,1.523184 0.0247,0 0.0484,-0.01442 0.0731,-0.02265 12.37599,-4.03516 18.46683,-16.016726 23.36175,-25.723258 0.32648,-0.453161 0.5201,-1.000024 0.55203,-1.557168 0.0319,-0.557172 -0.0989,-1.122569 -0.3718,-1.610743 -0.0185,-0.03502 -0.0371,-0.069 -0.0577,-0.101958 -0.0103,-0.01648 -0.0206,-0.03296 -0.0309,-0.0484 -0.28838,-0.4655 -0.70959,-0.847581 -1.20085,-1.09064 -0.49125,-0.243053 -1.05048,-0.345012 -1.59529,-0.291465 -10.85604,-0.615859 -24.28452,-1.334727 -33.96864,7.372967 -0.0185,0.01648 -0.0381,0.03399 -0.0566,0.05149 -4.82295,4.568524 -6.74891,10.94674 -7.21135,16.932382 -1.74154,1.217324 -3.482026,2.435676 -5.223426,3.652868 V 13.69474 c 0.005,-0.390334 -0.0669,-0.780641 -0.21216,-1.143159 -0.14521,-0.361491 -0.36355,-0.694138 -0.6375,-0.972209 -0.27396,-0.278072 -0.60352,-0.500513 -0.96293,-0.650899 -0.35941,-0.150386 -0.74977,-0.228634 -1.14008,-0.228634 -0.39033,0 -0.77961,0.07827 -1.14007,0.228634 -0.36046,0.150362 -0.689,0.372827 -0.96293,0.650899 -0.27396,0.278071 -0.49229,0.610718 -0.6375,0.972209 -0.14522,0.36149 -0.21834,0.752852 -0.21319,1.143159 v 20.222731 c -1.26264,-0.777556 -2.52526,-1.555112 -3.78786,-2.332695 -0.59835,-8.706508 -3.8158,-17.967206 -11.44925,-23.666788 -0.0113,-0.0093 -0.0226,-0.01648 -0.034,-0.02472 -9.02579,-6.54168 -19.80353,-7.917668 -30.16945,-7.883657 z m -0.0556,5.944512 c 9.7416,0.001 19.23721,1.28118 26.73673,6.70567 4.64076,3.469632 7.35345,9.005223 8.50877,14.945781 -5.24531,-3.230765 -10.49142,-6.46153 -15.73673,-9.692295 -0.32956,-0.209066 -0.70031,-0.35221 -1.08447,-0.418122 -0.38414,-0.06591 -0.78167,-0.05458 -1.1617,0.03296 -0.38002,0.08754 -0.74254,0.25129 -1.05974,0.478894 -0.31719,0.227603 -0.58807,0.518019 -0.793,0.850692 -0.20494,0.332674 -0.34193,0.705474 -0.40268,1.09064 -0.0608,0.385166 -0.0433,0.782724 0.0494,1.161694 0.0927,0.37897 0.26159,0.738431 0.49434,1.052543 0.23173,0.314112 0.5273,0.580847 0.86201,0.780641 5.0597,3.116341 10.11861,6.231891 15.17832,9.348231 -5.38004,1.634418 -11.05774,1.856886 -16.01989,-0.266734 -10.45029,-4.674511 -16.93239,-15.165138 -22.49883,-25.892258 2.30797,-0.104018 4.62416,-0.177141 6.92793,-0.177141 z m 89.730576,31.097496 c 1.22349,0.0062 2.45215,0.03811 3.67976,0.08445 -4.42747,8.376155 -9.66751,16.36079 -17.9941,19.097211 -2.85586,0.84244 -5.96191,0.711644 -9.01972,-0.06488 2.52526,-1.766242 5.05047,-3.531589 7.57571,-5.297779 0.32134,-0.219365 0.59732,-0.503624 0.80948,-0.830075 0.21113,-0.326478 0.35738,-0.695166 0.42741,-1.077247 0.07,-0.383109 0.0628,-0.779612 -0.0206,-1.158609 -0.0834,-0.380025 -0.24202,-0.743572 -0.4655,-1.061797 -0.22245,-0.318225 -0.50979,-0.593212 -0.83832,-0.801258 -0.32854,-0.208036 -0.69825,-0.351182 -1.08139,-0.417094 -0.38311,-0.06591 -0.77961,-0.05458 -1.15861,0.03193 -0.37899,0.08651 -0.74048,0.249231 -1.05768,0.474781 -2.39036,1.671487 -4.78182,3.344134 -7.17207,5.01541 0.85481,-3.047528 2.2956,-5.811633 4.45727,-7.871265 5.68481,-5.08976 13.64598,-6.164924 21.85815,-6.123794 z M 125.18475,82.5796 c 0.81257,0.0165 1.03812,0.25954 1.32236,0.63854 0.32545,0.43254 0.57262,1.28838 0.49023,2.18025 -0.0824,0.89188 -0.48403,1.70342 -0.90115,2.08964 -0.4171,0.38619 -0.73843,0.60041 -1.84966,0.35429 -0.20907,-0.0453 -0.42432,-0.069 -0.63854,-0.069 H 65.742134 c -0.0391,0 -0.0793,0.001 -0.11844,0 -1.00619,0.0402 -1.33884,-0.20804 -1.69621,-0.62412 -0.35738,-0.41503 -0.63751,-1.16686 -0.63751,-1.96398 0,-0.79711 0.2791,-1.54997 0.63751,-1.96809 0.3584,-0.41812 0.69413,-0.66943 1.70341,-0.63131 0.0371,0.001 0.0742,0 0.11123,0 h 58.909906 c 0.0494,0 0.0978,-0.001 0.14728,0 0.14212,0 0.26982,-0.0144 0.38619,0 z M 73.862684,93.67874 h 42.732356 c -1.64164,9.78799 -3.28429,19.57705 -4.92603,29.36531 -0.003,0.0206 -0.007,0.0433 -0.0103,0.0649 -0.0896,0.61689 -0.16993,0.59322 -0.21113,0.62823 -0.0412,0.035 -0.26159,0.1689 -0.81568,0.24923 -1.08961,0.15654 -3.02485,-0.0948 -5.14012,0.034 H 79.549174 c -0.29455,-0.0649 -0.32956,-0.12359 -0.42946,-0.24306 -0.1205,-0.14315 -0.32339,-0.52216 -0.48301,-1.17922 -0.31,-1.28016 -0.3038,-3.31514 -0.88981,-5.51609 -1.29458,-7.80034 -2.59015,-15.60174 -3.88462,-23.40208 z"
     fill-rule="evenodd"
     id="path64"
     />
</svg>
